<mxfile host="app.diagrams.net" modified="2022-05-31T13:33:37.225Z" agent="5.0 (Macintosh; Intel Mac OS X 10_15_7) AppleWebKit/537.36 (KHTML, like Gecko) Chrome/102.0.5005.61 Safari/537.36" etag="QCEcL-atYyRxbh8aLgLk" version="18.0.7" type="github" pages="3">
  <diagram id="gq2HnXt3JbhQDil0RZN6" name="SmartContract">
    <mxGraphModel dx="1234" dy="769" grid="1" gridSize="10" guides="1" tooltips="1" connect="1" arrows="1" fold="1" page="1" pageScale="1" pageWidth="827" pageHeight="1169" math="0" shadow="0">
      <root>
        <mxCell id="0" />
        <mxCell id="1" parent="0" />
        <mxCell id="1EdA5QhPeeBwXIG1rPMX-7" value="Step 1" style="swimlane;fontStyle=0;childLayout=stackLayout;horizontal=1;startSize=30;horizontalStack=0;resizeParent=1;resizeParentMax=0;resizeLast=0;collapsible=1;marginBottom=0;fillColor=#f5f5f5;fontColor=#333333;strokeColor=#666666;" parent="1" vertex="1">
          <mxGeometry x="80" y="320" width="120" height="120" as="geometry" />
        </mxCell>
        <mxCell id="1EdA5QhPeeBwXIG1rPMX-8" value="owner: address" style="text;strokeColor=none;fillColor=none;align=left;verticalAlign=middle;spacingLeft=4;spacingRight=4;overflow=hidden;points=[[0,0.5],[1,0.5]];portConstraint=eastwest;rotatable=0;" parent="1EdA5QhPeeBwXIG1rPMX-7" vertex="1">
          <mxGeometry y="30" width="120" height="30" as="geometry" />
        </mxCell>
        <mxCell id="1EdA5QhPeeBwXIG1rPMX-9" value="previousStep: uint" style="text;strokeColor=none;fillColor=none;align=left;verticalAlign=middle;spacingLeft=4;spacingRight=4;overflow=hidden;points=[[0,0.5],[1,0.5]];portConstraint=eastwest;rotatable=0;" parent="1EdA5QhPeeBwXIG1rPMX-7" vertex="1">
          <mxGeometry y="60" width="120" height="30" as="geometry" />
        </mxCell>
        <mxCell id="1EdA5QhPeeBwXIG1rPMX-10" value="timeStamp: uint" style="text;strokeColor=none;fillColor=none;align=left;verticalAlign=middle;spacingLeft=4;spacingRight=4;overflow=hidden;points=[[0,0.5],[1,0.5]];portConstraint=eastwest;rotatable=0;" parent="1EdA5QhPeeBwXIG1rPMX-7" vertex="1">
          <mxGeometry y="90" width="120" height="30" as="geometry" />
        </mxCell>
        <mxCell id="1EdA5QhPeeBwXIG1rPMX-11" value="Step 2" style="swimlane;fontStyle=0;childLayout=stackLayout;horizontal=1;startSize=30;horizontalStack=0;resizeParent=1;resizeParentMax=0;resizeLast=0;collapsible=1;marginBottom=0;fillColor=#f5f5f5;fontColor=#333333;strokeColor=#666666;" parent="1" vertex="1">
          <mxGeometry x="280" y="320" width="120" height="120" as="geometry" />
        </mxCell>
        <mxCell id="1EdA5QhPeeBwXIG1rPMX-12" value="owner: address" style="text;strokeColor=none;fillColor=none;align=left;verticalAlign=middle;spacingLeft=4;spacingRight=4;overflow=hidden;points=[[0,0.5],[1,0.5]];portConstraint=eastwest;rotatable=0;" parent="1EdA5QhPeeBwXIG1rPMX-11" vertex="1">
          <mxGeometry y="30" width="120" height="30" as="geometry" />
        </mxCell>
        <mxCell id="1EdA5QhPeeBwXIG1rPMX-13" value="previousStep: uint" style="text;strokeColor=none;fillColor=none;align=left;verticalAlign=middle;spacingLeft=4;spacingRight=4;overflow=hidden;points=[[0,0.5],[1,0.5]];portConstraint=eastwest;rotatable=0;" parent="1EdA5QhPeeBwXIG1rPMX-11" vertex="1">
          <mxGeometry y="60" width="120" height="30" as="geometry" />
        </mxCell>
        <mxCell id="1EdA5QhPeeBwXIG1rPMX-14" value="timeStamp: uint" style="text;strokeColor=none;fillColor=none;align=left;verticalAlign=middle;spacingLeft=4;spacingRight=4;overflow=hidden;points=[[0,0.5],[1,0.5]];portConstraint=eastwest;rotatable=0;" parent="1EdA5QhPeeBwXIG1rPMX-11" vertex="1">
          <mxGeometry y="90" width="120" height="30" as="geometry" />
        </mxCell>
        <mxCell id="1EdA5QhPeeBwXIG1rPMX-16" value="Step 3" style="swimlane;fontStyle=0;childLayout=stackLayout;horizontal=1;startSize=30;horizontalStack=0;resizeParent=1;resizeParentMax=0;resizeLast=0;collapsible=1;marginBottom=0;fillColor=#f5f5f5;fontColor=#333333;strokeColor=#666666;" parent="1" vertex="1">
          <mxGeometry x="480" y="320" width="120" height="120" as="geometry" />
        </mxCell>
        <mxCell id="1EdA5QhPeeBwXIG1rPMX-17" value="owner: address" style="text;strokeColor=none;fillColor=none;align=left;verticalAlign=middle;spacingLeft=4;spacingRight=4;overflow=hidden;points=[[0,0.5],[1,0.5]];portConstraint=eastwest;rotatable=0;" parent="1EdA5QhPeeBwXIG1rPMX-16" vertex="1">
          <mxGeometry y="30" width="120" height="30" as="geometry" />
        </mxCell>
        <mxCell id="1EdA5QhPeeBwXIG1rPMX-18" value="previousStep: uint" style="text;strokeColor=none;fillColor=none;align=left;verticalAlign=middle;spacingLeft=4;spacingRight=4;overflow=hidden;points=[[0,0.5],[1,0.5]];portConstraint=eastwest;rotatable=0;" parent="1EdA5QhPeeBwXIG1rPMX-16" vertex="1">
          <mxGeometry y="60" width="120" height="30" as="geometry" />
        </mxCell>
        <mxCell id="1EdA5QhPeeBwXIG1rPMX-19" value="timeStamp: uint" style="text;strokeColor=none;fillColor=none;align=left;verticalAlign=middle;spacingLeft=4;spacingRight=4;overflow=hidden;points=[[0,0.5],[1,0.5]];portConstraint=eastwest;rotatable=0;" parent="1EdA5QhPeeBwXIG1rPMX-16" vertex="1">
          <mxGeometry y="90" width="120" height="30" as="geometry" />
        </mxCell>
        <mxCell id="1EdA5QhPeeBwXIG1rPMX-20" value="Step 4" style="swimlane;fontStyle=0;childLayout=stackLayout;horizontal=1;startSize=30;horizontalStack=0;resizeParent=1;resizeParentMax=0;resizeLast=0;collapsible=1;marginBottom=0;fillColor=#f5f5f5;fontColor=#333333;strokeColor=#666666;" parent="1" vertex="1">
          <mxGeometry x="670" y="320" width="120" height="120" as="geometry" />
        </mxCell>
        <mxCell id="1EdA5QhPeeBwXIG1rPMX-21" value="owner: address" style="text;strokeColor=none;fillColor=none;align=left;verticalAlign=middle;spacingLeft=4;spacingRight=4;overflow=hidden;points=[[0,0.5],[1,0.5]];portConstraint=eastwest;rotatable=0;" parent="1EdA5QhPeeBwXIG1rPMX-20" vertex="1">
          <mxGeometry y="30" width="120" height="30" as="geometry" />
        </mxCell>
        <mxCell id="1EdA5QhPeeBwXIG1rPMX-22" value="previousStep: uint" style="text;strokeColor=none;fillColor=none;align=left;verticalAlign=middle;spacingLeft=4;spacingRight=4;overflow=hidden;points=[[0,0.5],[1,0.5]];portConstraint=eastwest;rotatable=0;" parent="1EdA5QhPeeBwXIG1rPMX-20" vertex="1">
          <mxGeometry y="60" width="120" height="30" as="geometry" />
        </mxCell>
        <mxCell id="1EdA5QhPeeBwXIG1rPMX-23" value="timeStamp: uint" style="text;strokeColor=none;fillColor=none;align=left;verticalAlign=middle;spacingLeft=4;spacingRight=4;overflow=hidden;points=[[0,0.5],[1,0.5]];portConstraint=eastwest;rotatable=0;" parent="1EdA5QhPeeBwXIG1rPMX-20" vertex="1">
          <mxGeometry y="90" width="120" height="30" as="geometry" />
        </mxCell>
        <mxCell id="1EdA5QhPeeBwXIG1rPMX-28" style="edgeStyle=orthogonalEdgeStyle;rounded=0;orthogonalLoop=1;jettySize=auto;html=1;exitX=0;exitY=0.5;exitDx=0;exitDy=0;entryX=1;entryY=0.5;entryDx=0;entryDy=0;" parent="1" source="1EdA5QhPeeBwXIG1rPMX-13" target="1EdA5QhPeeBwXIG1rPMX-9" edge="1">
          <mxGeometry relative="1" as="geometry" />
        </mxCell>
        <mxCell id="1EdA5QhPeeBwXIG1rPMX-29" style="edgeStyle=orthogonalEdgeStyle;rounded=0;orthogonalLoop=1;jettySize=auto;html=1;exitX=0;exitY=0.5;exitDx=0;exitDy=0;entryX=1;entryY=0.5;entryDx=0;entryDy=0;" parent="1" source="1EdA5QhPeeBwXIG1rPMX-18" target="1EdA5QhPeeBwXIG1rPMX-13" edge="1">
          <mxGeometry relative="1" as="geometry" />
        </mxCell>
        <mxCell id="1EdA5QhPeeBwXIG1rPMX-30" style="edgeStyle=orthogonalEdgeStyle;rounded=0;orthogonalLoop=1;jettySize=auto;html=1;exitX=0;exitY=0.5;exitDx=0;exitDy=0;entryX=1;entryY=0.5;entryDx=0;entryDy=0;" parent="1" source="1EdA5QhPeeBwXIG1rPMX-22" target="1EdA5QhPeeBwXIG1rPMX-18" edge="1">
          <mxGeometry relative="1" as="geometry" />
        </mxCell>
        <mxCell id="1EdA5QhPeeBwXIG1rPMX-31" value="Lot 1" style="swimlane;fontStyle=0;childLayout=stackLayout;horizontal=1;startSize=30;horizontalStack=0;resizeParent=1;resizeParentMax=0;resizeLast=0;collapsible=1;marginBottom=0;fillColor=#f5f5f5;fontColor=#333333;strokeColor=#666666;" parent="1" vertex="1">
          <mxGeometry x="80" y="80" width="140" height="120" as="geometry" />
        </mxCell>
        <mxCell id="1EdA5QhPeeBwXIG1rPMX-32" value="testResult: TestResult" style="text;strokeColor=none;fillColor=none;align=left;verticalAlign=middle;spacingLeft=4;spacingRight=4;overflow=hidden;points=[[0,0.5],[1,0.5]];portConstraint=eastwest;rotatable=0;" parent="1EdA5QhPeeBwXIG1rPMX-31" vertex="1">
          <mxGeometry y="30" width="140" height="30" as="geometry" />
        </mxCell>
        <mxCell id="1EdA5QhPeeBwXIG1rPMX-33" value="lastStep: lastStep" style="text;strokeColor=none;fillColor=none;align=left;verticalAlign=middle;spacingLeft=4;spacingRight=4;overflow=hidden;points=[[0,0.5],[1,0.5]];portConstraint=eastwest;rotatable=0;" parent="1EdA5QhPeeBwXIG1rPMX-31" vertex="1">
          <mxGeometry y="60" width="140" height="30" as="geometry" />
        </mxCell>
        <mxCell id="1EdA5QhPeeBwXIG1rPMX-34" value="timeStamp: timeStamp" style="text;strokeColor=none;fillColor=none;align=left;verticalAlign=middle;spacingLeft=4;spacingRight=4;overflow=hidden;points=[[0,0.5],[1,0.5]];portConstraint=eastwest;rotatable=0;" parent="1EdA5QhPeeBwXIG1rPMX-31" vertex="1">
          <mxGeometry y="90" width="140" height="30" as="geometry" />
        </mxCell>
        <mxCell id="1EdA5QhPeeBwXIG1rPMX-36" value="Steps" style="shape=table;startSize=30;container=1;collapsible=0;childLayout=tableLayout;fixedRows=1;rowLines=0;fontStyle=1;fillColor=#f5f5f5;fontColor=#333333;strokeColor=#666666;" parent="1" vertex="1">
          <mxGeometry x="480" y="80" width="180" height="150" as="geometry" />
        </mxCell>
        <mxCell id="1EdA5QhPeeBwXIG1rPMX-37" value="" style="shape=tableRow;horizontal=0;startSize=0;swimlaneHead=0;swimlaneBody=0;top=0;left=0;bottom=0;right=0;collapsible=0;dropTarget=0;fillColor=none;points=[[0,0.5],[1,0.5]];portConstraint=eastwest;" parent="1EdA5QhPeeBwXIG1rPMX-36" vertex="1">
          <mxGeometry y="30" width="180" height="30" as="geometry" />
        </mxCell>
        <mxCell id="1EdA5QhPeeBwXIG1rPMX-38" value="1" style="shape=partialRectangle;html=1;whiteSpace=wrap;connectable=0;fillColor=none;top=0;left=0;bottom=0;right=0;overflow=hidden;pointerEvents=1;" parent="1EdA5QhPeeBwXIG1rPMX-37" vertex="1">
          <mxGeometry width="40" height="30" as="geometry">
            <mxRectangle width="40" height="30" as="alternateBounds" />
          </mxGeometry>
        </mxCell>
        <mxCell id="1EdA5QhPeeBwXIG1rPMX-39" value="Step 1" style="shape=partialRectangle;html=1;whiteSpace=wrap;connectable=0;fillColor=none;top=0;left=0;bottom=0;right=0;align=left;spacingLeft=6;overflow=hidden;" parent="1EdA5QhPeeBwXIG1rPMX-37" vertex="1">
          <mxGeometry x="40" width="140" height="30" as="geometry">
            <mxRectangle width="140" height="30" as="alternateBounds" />
          </mxGeometry>
        </mxCell>
        <mxCell id="1EdA5QhPeeBwXIG1rPMX-40" value="" style="shape=tableRow;horizontal=0;startSize=0;swimlaneHead=0;swimlaneBody=0;top=0;left=0;bottom=0;right=0;collapsible=0;dropTarget=0;fillColor=none;points=[[0,0.5],[1,0.5]];portConstraint=eastwest;" parent="1EdA5QhPeeBwXIG1rPMX-36" vertex="1">
          <mxGeometry y="60" width="180" height="30" as="geometry" />
        </mxCell>
        <mxCell id="1EdA5QhPeeBwXIG1rPMX-41" value="2" style="shape=partialRectangle;html=1;whiteSpace=wrap;connectable=0;fillColor=none;top=0;left=0;bottom=0;right=0;overflow=hidden;" parent="1EdA5QhPeeBwXIG1rPMX-40" vertex="1">
          <mxGeometry width="40" height="30" as="geometry">
            <mxRectangle width="40" height="30" as="alternateBounds" />
          </mxGeometry>
        </mxCell>
        <mxCell id="1EdA5QhPeeBwXIG1rPMX-42" value="Step 2" style="shape=partialRectangle;html=1;whiteSpace=wrap;connectable=0;fillColor=none;top=0;left=0;bottom=0;right=0;align=left;spacingLeft=6;overflow=hidden;" parent="1EdA5QhPeeBwXIG1rPMX-40" vertex="1">
          <mxGeometry x="40" width="140" height="30" as="geometry">
            <mxRectangle width="140" height="30" as="alternateBounds" />
          </mxGeometry>
        </mxCell>
        <mxCell id="1EdA5QhPeeBwXIG1rPMX-43" value="" style="shape=tableRow;horizontal=0;startSize=0;swimlaneHead=0;swimlaneBody=0;top=0;left=0;bottom=0;right=0;collapsible=0;dropTarget=0;fillColor=none;points=[[0,0.5],[1,0.5]];portConstraint=eastwest;" parent="1EdA5QhPeeBwXIG1rPMX-36" vertex="1">
          <mxGeometry y="90" width="180" height="30" as="geometry" />
        </mxCell>
        <mxCell id="1EdA5QhPeeBwXIG1rPMX-44" value="3" style="shape=partialRectangle;html=1;whiteSpace=wrap;connectable=0;fillColor=none;top=0;left=0;bottom=0;right=0;overflow=hidden;" parent="1EdA5QhPeeBwXIG1rPMX-43" vertex="1">
          <mxGeometry width="40" height="30" as="geometry">
            <mxRectangle width="40" height="30" as="alternateBounds" />
          </mxGeometry>
        </mxCell>
        <mxCell id="1EdA5QhPeeBwXIG1rPMX-45" value="Step 3" style="shape=partialRectangle;html=1;whiteSpace=wrap;connectable=0;fillColor=none;top=0;left=0;bottom=0;right=0;align=left;spacingLeft=6;overflow=hidden;" parent="1EdA5QhPeeBwXIG1rPMX-43" vertex="1">
          <mxGeometry x="40" width="140" height="30" as="geometry">
            <mxRectangle width="140" height="30" as="alternateBounds" />
          </mxGeometry>
        </mxCell>
        <mxCell id="1EdA5QhPeeBwXIG1rPMX-47" value="" style="shape=tableRow;horizontal=0;startSize=0;swimlaneHead=0;swimlaneBody=0;top=0;left=0;bottom=0;right=0;collapsible=0;dropTarget=0;fillColor=none;points=[[0,0.5],[1,0.5]];portConstraint=eastwest;" parent="1EdA5QhPeeBwXIG1rPMX-36" vertex="1">
          <mxGeometry y="120" width="180" height="30" as="geometry" />
        </mxCell>
        <mxCell id="1EdA5QhPeeBwXIG1rPMX-48" value="4" style="shape=partialRectangle;html=1;whiteSpace=wrap;connectable=0;fillColor=none;top=0;left=0;bottom=0;right=0;overflow=hidden;" parent="1EdA5QhPeeBwXIG1rPMX-47" vertex="1">
          <mxGeometry width="40" height="30" as="geometry">
            <mxRectangle width="40" height="30" as="alternateBounds" />
          </mxGeometry>
        </mxCell>
        <mxCell id="1EdA5QhPeeBwXIG1rPMX-49" value="Step 4" style="shape=partialRectangle;html=1;whiteSpace=wrap;connectable=0;fillColor=none;top=0;left=0;bottom=0;right=0;align=left;spacingLeft=6;overflow=hidden;" parent="1EdA5QhPeeBwXIG1rPMX-47" vertex="1">
          <mxGeometry x="40" width="140" height="30" as="geometry">
            <mxRectangle width="140" height="30" as="alternateBounds" />
          </mxGeometry>
        </mxCell>
        <mxCell id="1EdA5QhPeeBwXIG1rPMX-51" style="edgeStyle=orthogonalEdgeStyle;rounded=0;orthogonalLoop=1;jettySize=auto;html=1;exitX=1;exitY=0.5;exitDx=0;exitDy=0;entryX=0;entryY=0.5;entryDx=0;entryDy=0;" parent="1" source="1EdA5QhPeeBwXIG1rPMX-33" target="1EdA5QhPeeBwXIG1rPMX-47" edge="1">
          <mxGeometry relative="1" as="geometry" />
        </mxCell>
        <mxCell id="1EdA5QhPeeBwXIG1rPMX-52" style="edgeStyle=orthogonalEdgeStyle;rounded=0;orthogonalLoop=1;jettySize=auto;html=1;exitX=1;exitY=0.5;exitDx=0;exitDy=0;entryX=0.5;entryY=0;entryDx=0;entryDy=0;" parent="1" source="1EdA5QhPeeBwXIG1rPMX-47" target="1EdA5QhPeeBwXIG1rPMX-20" edge="1">
          <mxGeometry relative="1" as="geometry" />
        </mxCell>
      </root>
    </mxGraphModel>
  </diagram>
  <diagram id="qp6nSD3mB71mgP_TYyeL" name="Arichitecture">
    <mxGraphModel dx="1116" dy="687" grid="1" gridSize="10" guides="1" tooltips="1" connect="1" arrows="1" fold="1" page="1" pageScale="1" pageWidth="827" pageHeight="1169" math="0" shadow="0">
      <root>
        <mxCell id="0" />
        <mxCell id="1" parent="0" />
        <mxCell id="ptkv8-53b5TqSJL8Dkz3-2" value="Private Blockchain" style="rounded=0;whiteSpace=wrap;html=1;" parent="1" vertex="1">
          <mxGeometry x="200" y="520" width="200" height="80" as="geometry" />
        </mxCell>
        <mxCell id="ptkv8-53b5TqSJL8Dkz3-3" value="" style="rounded=0;whiteSpace=wrap;html=1;fillColor=none;strokeColor=#666666;fontColor=#333333;dashed=1;" parent="1" vertex="1">
          <mxGeometry x="120" y="160" width="360" height="330" as="geometry" />
        </mxCell>
        <mxCell id="ptkv8-53b5TqSJL8Dkz3-24" style="edgeStyle=orthogonalEdgeStyle;rounded=0;orthogonalLoop=1;jettySize=auto;html=1;exitX=0.5;exitY=0.5;exitDx=0;exitDy=0;exitPerimeter=0;" parent="1" source="ptkv8-53b5TqSJL8Dkz3-5" target="ptkv8-53b5TqSJL8Dkz3-7" edge="1">
          <mxGeometry relative="1" as="geometry">
            <Array as="points">
              <mxPoint x="300" y="90" />
            </Array>
          </mxGeometry>
        </mxCell>
        <mxCell id="ptkv8-53b5TqSJL8Dkz3-5" value="User" style="shape=umlActor;verticalLabelPosition=bottom;verticalAlign=top;html=1;outlineConnect=0;fillColor=#f5f5f5;fontColor=#333333;strokeColor=#666666;" parent="1" vertex="1">
          <mxGeometry x="160" y="60" width="30" height="60" as="geometry" />
        </mxCell>
        <mxCell id="ptkv8-53b5TqSJL8Dkz3-7" value="Frontend" style="rounded=0;whiteSpace=wrap;html=1;fillColor=#f5f5f5;fontColor=#333333;strokeColor=#666666;" parent="1" vertex="1">
          <mxGeometry x="160" y="190" width="280" height="60" as="geometry" />
        </mxCell>
        <mxCell id="ptkv8-53b5TqSJL8Dkz3-10" value="Smart Contract" style="shape=note;whiteSpace=wrap;html=1;backgroundOutline=1;darkOpacity=0.05;fillColor=#f5f5f5;fontColor=#333333;strokeColor=#666666;" parent="1" vertex="1">
          <mxGeometry x="600" y="240" width="80" height="100" as="geometry" />
        </mxCell>
        <mxCell id="ptkv8-53b5TqSJL8Dkz3-11" value="" style="shape=image;html=1;verticalAlign=top;verticalLabelPosition=bottom;labelBackgroundColor=#ffffff;imageAspect=0;aspect=fixed;image=https://cdn3.iconfinder.com/data/icons/currency-and-cryptocurrency-signs-1/64/cryptocurrency_blockchain_Ethereum_ETH-128.png;fillColor=none;" parent="1" vertex="1">
          <mxGeometry x="625" y="304" width="30" height="30" as="geometry" />
        </mxCell>
        <mxCell id="ptkv8-53b5TqSJL8Dkz3-13" value="" style="endArrow=classic;startArrow=classic;html=1;rounded=0;exitX=1;exitY=0.5;exitDx=0;exitDy=0;entryX=0;entryY=0.5;entryDx=0;entryDy=0;entryPerimeter=0;" parent="1" source="ptkv8-53b5TqSJL8Dkz3-7" target="ptkv8-53b5TqSJL8Dkz3-10" edge="1">
          <mxGeometry width="50" height="50" relative="1" as="geometry">
            <mxPoint x="500" y="290" as="sourcePoint" />
            <mxPoint x="550" y="240" as="targetPoint" />
            <Array as="points">
              <mxPoint x="520" y="220" />
              <mxPoint x="520" y="260" />
              <mxPoint x="520" y="290" />
            </Array>
          </mxGeometry>
        </mxCell>
        <mxCell id="ptkv8-53b5TqSJL8Dkz3-20" style="edgeStyle=orthogonalEdgeStyle;rounded=0;orthogonalLoop=1;jettySize=auto;html=1;exitX=1;exitY=0.5;exitDx=0;exitDy=0;entryX=0.5;entryY=1;entryDx=0;entryDy=0;entryPerimeter=0;" parent="1" source="ptkv8-53b5TqSJL8Dkz3-15" target="ptkv8-53b5TqSJL8Dkz3-10" edge="1">
          <mxGeometry relative="1" as="geometry" />
        </mxCell>
        <mxCell id="ptkv8-53b5TqSJL8Dkz3-21" style="edgeStyle=orthogonalEdgeStyle;rounded=0;orthogonalLoop=1;jettySize=auto;html=1;exitX=0.5;exitY=1;exitDx=0;exitDy=0;entryX=0.5;entryY=0;entryDx=0;entryDy=0;startArrow=classic;startFill=1;endArrow=none;endFill=0;" parent="1" source="ptkv8-53b5TqSJL8Dkz3-15" target="ptkv8-53b5TqSJL8Dkz3-16" edge="1">
          <mxGeometry relative="1" as="geometry" />
        </mxCell>
        <mxCell id="ptkv8-53b5TqSJL8Dkz3-28" value="REST" style="edgeLabel;html=1;align=center;verticalAlign=middle;resizable=0;points=[];" parent="ptkv8-53b5TqSJL8Dkz3-21" connectable="0" vertex="1">
          <mxGeometry x="-0.0833" y="4" relative="1" as="geometry">
            <mxPoint x="-4" as="offset" />
          </mxGeometry>
        </mxCell>
        <mxCell id="ptkv8-53b5TqSJL8Dkz3-15" value="SC Connector" style="rounded=0;whiteSpace=wrap;html=1;fillColor=#f5f5f5;fontColor=#333333;strokeColor=#666666;" parent="1" vertex="1">
          <mxGeometry x="160" y="300" width="280" height="60" as="geometry" />
        </mxCell>
        <mxCell id="ptkv8-53b5TqSJL8Dkz3-22" style="edgeStyle=orthogonalEdgeStyle;rounded=0;orthogonalLoop=1;jettySize=auto;html=1;exitX=0.5;exitY=1;exitDx=0;exitDy=0;endArrow=none;endFill=0;startArrow=classic;startFill=1;" parent="1" source="ptkv8-53b5TqSJL8Dkz3-16" target="ptkv8-53b5TqSJL8Dkz3-2" edge="1">
          <mxGeometry relative="1" as="geometry" />
        </mxCell>
        <mxCell id="ptkv8-53b5TqSJL8Dkz3-16" value="API Layer" style="rounded=0;whiteSpace=wrap;html=1;fillColor=#f5f5f5;fontColor=#333333;strokeColor=#666666;" parent="1" vertex="1">
          <mxGeometry x="160" y="400" width="280" height="60" as="geometry" />
        </mxCell>
        <mxCell id="ptkv8-53b5TqSJL8Dkz3-26" value="Web3 library" style="text;html=1;align=center;verticalAlign=middle;resizable=0;points=[];autosize=1;strokeColor=none;fillColor=none;" parent="1" vertex="1">
          <mxGeometry x="520" y="270" width="80" height="20" as="geometry" />
        </mxCell>
        <mxCell id="ptkv8-53b5TqSJL8Dkz3-27" value="Web3 library" style="text;html=1;align=center;verticalAlign=middle;resizable=0;points=[];autosize=1;strokeColor=none;fillColor=none;" parent="1" vertex="1">
          <mxGeometry x="560" y="360" width="80" height="20" as="geometry" />
        </mxCell>
        <mxCell id="KB408BWhOCXfyprnvpSZ-1" value="Fromarte DB" style="shape=cylinder3;whiteSpace=wrap;html=1;boundedLbl=1;backgroundOutline=1;size=15;" parent="1" vertex="1">
          <mxGeometry x="610" y="520" width="60" height="80" as="geometry" />
        </mxCell>
        <mxCell id="KB408BWhOCXfyprnvpSZ-2" style="edgeStyle=orthogonalEdgeStyle;rounded=0;orthogonalLoop=1;jettySize=auto;html=1;exitX=1;exitY=0.5;exitDx=0;exitDy=0;startArrow=classic;startFill=1;endArrow=none;endFill=0;" parent="1" source="ptkv8-53b5TqSJL8Dkz3-2" target="KB408BWhOCXfyprnvpSZ-1" edge="1">
          <mxGeometry relative="1" as="geometry" />
        </mxCell>
        <mxCell id="56BJT640XPTqfAkpjDBz-1" value="" style="rounded=0;whiteSpace=wrap;html=1;dashed=1;fillColor=none;" parent="1" vertex="1">
          <mxGeometry x="510" y="160" width="180" height="330" as="geometry" />
        </mxCell>
        <mxCell id="56BJT640XPTqfAkpjDBz-2" value="" style="rounded=0;whiteSpace=wrap;html=1;dashed=1;fillColor=none;" parent="1" vertex="1">
          <mxGeometry x="180" y="500" width="510" height="120" as="geometry" />
        </mxCell>
        <mxCell id="56BJT640XPTqfAkpjDBz-3" value="external" style="text;html=1;strokeColor=none;fillColor=none;align=center;verticalAlign=middle;whiteSpace=wrap;rounded=0;dashed=1;" parent="1" vertex="1">
          <mxGeometry x="470" y="500" width="60" height="30" as="geometry" />
        </mxCell>
        <mxCell id="56BJT640XPTqfAkpjDBz-4" value="on-chain" style="text;html=1;strokeColor=none;fillColor=none;align=center;verticalAlign=middle;whiteSpace=wrap;rounded=0;dashed=1;" parent="1" vertex="1">
          <mxGeometry x="510" y="160" width="60" height="30" as="geometry" />
        </mxCell>
        <mxCell id="56BJT640XPTqfAkpjDBz-5" value="off-chain" style="text;html=1;strokeColor=none;fillColor=none;align=center;verticalAlign=middle;whiteSpace=wrap;rounded=0;dashed=1;" parent="1" vertex="1">
          <mxGeometry x="420" y="160" width="60" height="30" as="geometry" />
        </mxCell>
      </root>
    </mxGraphModel>
  </diagram>
  <diagram id="miJ9Ff-9MYpUSpfttfYN" name="UseCase">
    <mxGraphModel dx="1175" dy="783" grid="1" gridSize="10" guides="1" tooltips="1" connect="1" arrows="1" fold="1" page="1" pageScale="1" pageWidth="827" pageHeight="1169" math="0" shadow="0">
      <root>
        <mxCell id="0" />
        <mxCell id="1" parent="0" />
        <mxCell id="m9R2OEPlr3pBQJueOKxp-2" value="" style="rounded=1;whiteSpace=wrap;html=1;fillColor=none;" vertex="1" parent="1">
          <mxGeometry x="200" y="120" width="400" height="440" as="geometry" />
        </mxCell>
        <mxCell id="m9R2OEPlr3pBQJueOKxp-4" value="checking cheese information" style="ellipse;whiteSpace=wrap;html=1;fillColor=none;" vertex="1" parent="1">
          <mxGeometry x="240" y="360" width="120" height="80" as="geometry" />
        </mxCell>
        <mxCell id="m9R2OEPlr3pBQJueOKxp-5" value="record production step and details" style="ellipse;whiteSpace=wrap;html=1;fillColor=none;" vertex="1" parent="1">
          <mxGeometry x="240" y="210" width="120" height="80" as="geometry" />
        </mxCell>
        <mxCell id="m9R2OEPlr3pBQJueOKxp-6" value="add laboratory results" style="ellipse;whiteSpace=wrap;html=1;fillColor=none;" vertex="1" parent="1">
          <mxGeometry x="440" y="160" width="120" height="80" as="geometry" />
        </mxCell>
        <mxCell id="m9R2OEPlr3pBQJueOKxp-7" value="Oversee system" style="ellipse;whiteSpace=wrap;html=1;fillColor=none;" vertex="1" parent="1">
          <mxGeometry x="440" y="260" width="120" height="80" as="geometry" />
        </mxCell>
        <mxCell id="m9R2OEPlr3pBQJueOKxp-18" style="edgeStyle=orthogonalEdgeStyle;rounded=0;orthogonalLoop=1;jettySize=auto;html=1;" edge="1" parent="1" source="m9R2OEPlr3pBQJueOKxp-8" target="m9R2OEPlr3pBQJueOKxp-5">
          <mxGeometry relative="1" as="geometry" />
        </mxCell>
        <mxCell id="m9R2OEPlr3pBQJueOKxp-8" value="Productive Stakeholder" style="shape=umlActor;verticalLabelPosition=bottom;verticalAlign=top;html=1;outlineConnect=0;fillColor=none;" vertex="1" parent="1">
          <mxGeometry x="80" y="220" width="30" height="60" as="geometry" />
        </mxCell>
        <mxCell id="m9R2OEPlr3pBQJueOKxp-19" style="edgeStyle=orthogonalEdgeStyle;rounded=0;orthogonalLoop=1;jettySize=auto;html=1;entryX=1;entryY=0.5;entryDx=0;entryDy=0;" edge="1" parent="1" source="m9R2OEPlr3pBQJueOKxp-12" target="m9R2OEPlr3pBQJueOKxp-6">
          <mxGeometry relative="1" as="geometry" />
        </mxCell>
        <mxCell id="m9R2OEPlr3pBQJueOKxp-12" value="Laboratory" style="shape=umlActor;verticalLabelPosition=bottom;verticalAlign=top;html=1;outlineConnect=0;fillColor=none;" vertex="1" parent="1">
          <mxGeometry x="700" y="170" width="30" height="60" as="geometry" />
        </mxCell>
        <mxCell id="m9R2OEPlr3pBQJueOKxp-20" style="edgeStyle=orthogonalEdgeStyle;rounded=0;orthogonalLoop=1;jettySize=auto;html=1;entryX=1;entryY=0.5;entryDx=0;entryDy=0;" edge="1" parent="1" source="m9R2OEPlr3pBQJueOKxp-16" target="m9R2OEPlr3pBQJueOKxp-7">
          <mxGeometry relative="1" as="geometry" />
        </mxCell>
        <mxCell id="m9R2OEPlr3pBQJueOKxp-22" style="edgeStyle=orthogonalEdgeStyle;rounded=0;orthogonalLoop=1;jettySize=auto;html=1;" edge="1" parent="1" source="m9R2OEPlr3pBQJueOKxp-16" target="m9R2OEPlr3pBQJueOKxp-21">
          <mxGeometry relative="1" as="geometry" />
        </mxCell>
        <mxCell id="m9R2OEPlr3pBQJueOKxp-24" style="edgeStyle=orthogonalEdgeStyle;rounded=0;orthogonalLoop=1;jettySize=auto;html=1;entryX=1;entryY=0.5;entryDx=0;entryDy=0;" edge="1" parent="1" source="m9R2OEPlr3pBQJueOKxp-16" target="m9R2OEPlr3pBQJueOKxp-23">
          <mxGeometry relative="1" as="geometry" />
        </mxCell>
        <mxCell id="m9R2OEPlr3pBQJueOKxp-16" value="&lt;br&gt;Administrator" style="shape=umlActor;verticalLabelPosition=bottom;verticalAlign=top;html=1;outlineConnect=0;fillColor=none;" vertex="1" parent="1">
          <mxGeometry x="700" y="370" width="30" height="60" as="geometry" />
        </mxCell>
        <mxCell id="m9R2OEPlr3pBQJueOKxp-25" style="edgeStyle=orthogonalEdgeStyle;rounded=0;orthogonalLoop=1;jettySize=auto;html=1;" edge="1" parent="1" source="m9R2OEPlr3pBQJueOKxp-17" target="m9R2OEPlr3pBQJueOKxp-4">
          <mxGeometry relative="1" as="geometry" />
        </mxCell>
        <mxCell id="m9R2OEPlr3pBQJueOKxp-17" value="Consumer" style="shape=umlActor;verticalLabelPosition=bottom;verticalAlign=top;html=1;outlineConnect=0;fillColor=none;" vertex="1" parent="1">
          <mxGeometry x="80" y="370" width="30" height="60" as="geometry" />
        </mxCell>
        <mxCell id="m9R2OEPlr3pBQJueOKxp-21" value="Manage Access Control" style="ellipse;whiteSpace=wrap;html=1;fillColor=none;" vertex="1" parent="1">
          <mxGeometry x="440" y="360" width="120" height="80" as="geometry" />
        </mxCell>
        <mxCell id="m9R2OEPlr3pBQJueOKxp-23" value="Make changes" style="ellipse;whiteSpace=wrap;html=1;fillColor=none;" vertex="1" parent="1">
          <mxGeometry x="440" y="460" width="120" height="80" as="geometry" />
        </mxCell>
        <mxCell id="m9R2OEPlr3pBQJueOKxp-26" value="Tête de Moine supply chain" style="text;html=1;strokeColor=none;fillColor=none;align=center;verticalAlign=middle;whiteSpace=wrap;rounded=0;" vertex="1" parent="1">
          <mxGeometry x="334" y="90" width="160" height="30" as="geometry" />
        </mxCell>
      </root>
    </mxGraphModel>
  </diagram>
</mxfile>
